<?xml version="1.0" encoding="iso-8859-1"?>
<!-- Generator: Adobe Illustrator 18.0.0, SVG Export Plug-In . SVG Version: 6.00 Build 0)  -->
<!DOCTYPE svg PUBLIC "-//W3C//DTD SVG 1.1//EN" "http://www.w3.org/Graphics/SVG/1.1/DTD/svg11.dtd">
<svg version="1.1" id="Capa_1" xmlns="http://www.w3.org/2000/svg" xmlns:xlink="http://www.w3.org/1999/xlink" x="0px" y="0px"
	 viewBox="0 0 255.718 255.718" style="enable-background:new 0 0 255.718 255.718;" xml:space="preserve">
<g>
	<path d="M205.083,0c-8.008,0-14.5,6.492-14.5,14.5v38.075c-1.759-7.214-8.246-12.576-16.001-12.576
		c-6.683,0-12.425,3.984-15.014,9.701v-5.578c0-9.106-7.382-16.487-16.487-16.487c-9.105,0-16.487,7.382-16.487,16.487v6.684
		c-2.589-5.716-8.331-9.7-15.014-9.7c-9.105,0-16.487,7.382-16.487,16.487v43.267c1.206,5.993,6.556,10.411,12.718,10.411
		c4.44,0,8.471-2.241,10.839-5.86c0.001-0.002,0.003-0.005,0.004-0.007c0.529-0.81,0.806-1.747,0.806-2.715V76.5
		c0-2.69,2.181-4.871,4.871-4.871c2.493,0,4.871,2.06,4.871,4.871v26.274c0,0.935,0.271,1.852,0.783,2.635l0,0
		c2.367,3.62,6.398,5.86,10.839,5.86c4.441,0,8.471-2.24,10.838-5.86c0,0,0.001-0.002,0.002-0.003
		c0.522-0.799,0.796-1.724,0.796-2.679V70.5c0-2.69,2.181-4.871,4.871-4.871c2.571,0,4.871,2.1,4.871,4.871v32.23
		c0,0.948,0.275,1.879,0.794,2.673c0.001,0.002,0.003,0.004,0.004,0.007c2.367,3.62,6.398,5.86,10.839,5.86
		c4.44,0,8.471-2.24,10.838-5.86c0.511-0.781,0.783-1.694,0.783-2.627V80.5c0-2.69,2.181-4.871,4.871-4.871
		c0.086,0,0.167,0.021,0.252,0.025c2.571,0.134,4.619,2.242,4.619,4.846c-0.389,18.547,0.234,22.839-0.362,26.444
		c-1.819,11.019-11.763,14.067-21.001,14.067c-6.391,0-12.304-2.642-16.508-7.099c-4.204,4.457-10.116,7.099-16.507,7.099
		c-6.39,0-12.303-2.642-16.507-7.099c-4.205,4.457-10.117,7.099-16.507,7.099c-4.966,0-9.685-2.158-12.938-5.911
		c-10.615-12.246-5.682-6.555-29.794-34.371c-5.965-6.881-16.377-7.622-23.257-1.659c-6.881,5.964-7.623,16.377-1.659,23.257
		l62.38,71.962c7.47,10.668,19.843,17.664,33.825,17.664h39.536c24.077,0,43.666-19.589,43.666-43.666v-4.17
		c0.001-0.084,0.013-0.166,0.013-0.251V14.5C219.583,6.492,213.091,0,205.083,0z"/>
	<path d="M210.288,208.551H110.101c-5.126,0-9.282,4.156-9.282,9.282v28.603c0,5.126,4.156,9.282,9.282,9.282h100.187
		c5.126,0,9.282-4.156,9.282-9.282v-28.603C219.571,212.707,215.415,208.551,210.288,208.551z"/>
</g>
<g>
</g>
<g>
</g>
<g>
</g>
<g>
</g>
<g>
</g>
<g>
</g>
<g>
</g>
<g>
</g>
<g>
</g>
<g>
</g>
<g>
</g>
<g>
</g>
<g>
</g>
<g>
</g>
<g>
</g>
</svg>
